<svg width="35" height="35" viewBox="0 0 35 35" fill="none" xmlns="http://www.w3.org/2000/svg">
<path d="M21.875 30.2822C21.4224 30.2822 20.9761 30.1769 20.5713 29.9746L14.4288 26.9033C14.0239 26.701 13.5776 26.5957 13.125 26.5957C12.6724 26.5957 12.2261 26.701 11.8213 26.9033L6.48521 29.5721C6.2626 29.6833 6.01523 29.7357 5.76663 29.7243C5.51803 29.713 5.27648 29.6381 5.06497 29.507C4.85345 29.3759 4.67901 29.1928 4.55824 28.9753C4.43747 28.7577 4.37439 28.5128 4.375 28.2639V9.65122C4.37515 9.38047 4.45067 9.11509 4.5931 8.88483C4.73554 8.65457 4.93926 8.4685 5.18146 8.34747L11.8213 5.02685C12.2261 4.82455 12.6724 4.71924 13.125 4.71924C13.5776 4.71924 14.0239 4.82455 14.4288 5.02685L20.5713 8.0981C20.9761 8.30039 21.4224 8.40571 21.875 8.40571M21.875 8.40571C22.3276 8.40571 22.7739 8.30039 23.1788 8.0981L28.5148 5.42935C28.7373 5.31816 28.9845 5.26574 29.233 5.27705C29.4815 5.28837 29.7229 5.36305 29.9344 5.494C30.1459 5.62494 30.3204 5.80781 30.4412 6.0252C30.5621 6.24259 30.6254 6.48728 30.625 6.73601V25.3502C30.6249 25.6209 30.5493 25.8863 30.4069 26.1166C30.2645 26.3468 30.0607 26.5329 29.8185 26.6539L23.1788 29.9746C22.7739 30.1769 22.3276 30.2822 21.875 30.2822M21.875 8.40571V30.2822M13.125 4.71924V26.5941" stroke="black" stroke-width="2" stroke-linecap="round" stroke-linejoin="round"/>
</svg>
