<svg width="92" height="92" viewBox="0 0 92 92" fill="none" xmlns="http://www.w3.org/2000/svg">
<path d="M46 91C70.8528 91 91 70.8528 91 46C91 21.1472 70.8528 1 46 1C21.1472 1 1 21.1472 1 46C1 70.8528 21.1472 91 46 91Z" fill="#FBF2EB" stroke="#FCF1EB" stroke-width="2" stroke-miterlimit="10"/>
<path d="M20.6017 67.2904C20.6017 67.2904 25.0553 64.871 25.4799 60.5655C25.707 58.2153 24.8084 46.948 27.1586 42.7512C29.5089 38.5543 33.212 30.6445 33.5477 29.3015C33.8834 27.9586 36.7373 27.2871 37.4088 30.6445C38.0803 34.002 34.0513 43.4227 34.0513 43.4227C34.1007 44.4299 50.6708 15.8519 54.6405 17.5405C57.8894 18.923 52.4088 27.0402 52.4088 27.0402" stroke="#BE8E55" stroke-width="2" stroke-miterlimit="10"/>
<path d="M44.8151 39.0579C44.8151 39.0579 58.5609 15.2297 62.9652 16.7011C65.4833 17.5404 62.7973 22.2606 59.7459 27.8597C55.8552 34.9993 50.5228 42.919 50.5228 42.919" stroke="#BE8E55" stroke-width="2" stroke-miterlimit="10"/>
<path d="M58.0869 30.9013C58.0869 30.9013 63.0441 22.4977 65.9868 24.6011C69.4924 27.1093 54.5615 48.4688 54.5615 48.4688C54.5615 48.4688 63.2811 35.6511 65.4832 37.3792C68.1692 39.4826 61.395 49.7525 54.2258 60.4076C51.1152 65.029 46.3259 65.4536 42.287 69.9862C38.2482 74.5188 37.4088 75.7038 37.4088 75.7038" stroke="#BE8E55" stroke-width="2" stroke-miterlimit="10"/>
<path d="M50.5227 20.3943C51.2534 22.1026 53.1692 22.8828 54.8973 22.9124L50.5227 20.3943Z" fill="#FBF2EB"/>
<path d="M50.5227 20.3943C51.2534 22.1026 53.1692 22.8828 54.8973 22.9124" stroke="#BE8E55" stroke-width="2" stroke-miterlimit="10"/>
<path d="M57.7117 20.6907C58.5708 22.7447 60.0026 23.6531 62.0863 23.2977" stroke="#BE8E55" stroke-width="2" stroke-miterlimit="10"/>
<path d="M60.5654 27.2474C61.5035 29.6075 62.9848 30.8024 65.1869 30.4864" stroke="#BE8E55" stroke-width="2" stroke-miterlimit="10"/>
<path d="M61.7406 39.5221C62.3528 41.3095 63.5675 42.1883 65.2659 42.2969" stroke="#BE8E55" stroke-width="2" stroke-miterlimit="10"/>
<path d="M31.8888 33.2416C34.2884 32.0566 36.1251 28.9163 34.7525 28.1362" stroke="#BE8E55" stroke-width="2" stroke-miterlimit="10"/>
</svg>
